<?xml version="1.0" encoding="UTF-8" standalone="no"?>
<!-- Created with Inkscape (http://www.inkscape.org/) -->

<svg
   xmlns:dc="http://purl.org/dc/elements/1.1/"
   xmlns:cc="http://creativecommons.org/ns#"
   xmlns:rdf="http://www.w3.org/1999/02/22-rdf-syntax-ns#"
   xmlns:svg="http://www.w3.org/2000/svg"
   xmlns="http://www.w3.org/2000/svg"
   xmlns:sodipodi="http://sodipodi.sourceforge.net/DTD/sodipodi-0.dtd"
   xmlns:inkscape="http://www.inkscape.org/namespaces/inkscape"
   width="576.50958"
   height="153.83348"
   viewBox="0 0 106.77438 28.491242"
   version="1.1"
   id="svg8"
   inkscape:version="0.92.3 (2405546, 2018-03-11)"
   sodipodi:docname="logo.svg">
  <defs
     id="defs2" />
  <sodipodi:namedview
     id="base"
     pagecolor="#ffffff"
     bordercolor="#666666"
     borderopacity="1.0"
     inkscape:pageopacity="0.0"
     inkscape:pageshadow="2"
     inkscape:zoom="0.72871773"
     inkscape:cx="206.18178"
     inkscape:cy="241.32616"
     inkscape:document-units="px"
     inkscape:current-layer="layer1"
     showgrid="false"
     inkscape:window-width="1920"
     inkscape:window-height="1017"
     inkscape:window-x="-8"
     inkscape:window-y="418"
     inkscape:window-maximized="1"
     scale-x="0.7"
     showborder="true"
     units="px"
     fit-margin-top="0"
     fit-margin-left="0"
     fit-margin-right="0"
     fit-margin-bottom="0" />
  <metadata
     id="metadata5">
    <rdf:RDF>
      <cc:Work
         rdf:about="">
        <dc:format>image/svg+xml</dc:format>
        <dc:type
           rdf:resource="http://purl.org/dc/dcmitype/StillImage" />
        <dc:title></dc:title>
      </cc:Work>
    </rdf:RDF>
  </metadata>
  <g
     inkscape:label="Camada 1"
     inkscape:groupmode="layer"
     id="layer1"
     transform="translate(-50.562806,-120.15438)">
    <g
       id="g5512"
       transform="translate(31.931668,30.449998)">
      <path
         sodipodi:nodetypes="cccccccccccccccccccccccccccccccc"
         inkscape:connector-curvature="0"
         id="path262"
         style="fill:#ffffff;fill-rule:evenodd;stroke-width:0.26458332"
         d="M 33.629946,109.5595 V 90.452588 h 3.629078 v 7.05488 h 9.406414 v -7.05488 h 3.629079 V 109.5595 h -3.629079 v -7.68535 h -9.406414 v 7.68535 z m 19.988767,0 V 90.452588 h 4.158244 v 16.327732 h 6.560428 l -1.199999,2.77918 z m 18.716034,-7.50914 h 4.79763 c -0.76728,-2.300962 -1.1484,-3.496392 -2.14757,-5.991242 -0.96858,2.41517 -1.85551,3.968102 -2.65006,5.991242 z m 8.0578,7.50914 -2.1645,-4.91699 h -6.51319 l -2.21798,4.91699 H 65.70747 l 9.250617,-19.855122 9.24166,19.855122 z" />
      <path
         inkscape:connector-curvature="0"
         id="path264"
         style="fill:#e6e6e6;fill-rule:evenodd;stroke-width:0.26458332"
         d="m 94.573103,97.974558 h 17.421507 l 1.74548,3.750002 H 96.318473 Z" />
      <path
         inkscape:connector-curvature="0"
         id="path266"
         style="fill:#00ccff;fill-rule:evenodd;stroke-width:0.26458332"
         d="m 107.82086,90.205838 h 13.83472 c 2.06251,0 3.74994,1.68728 3.74994,3.74909 v 11.814292 c 0,2.06123 -1.68825,3.74911 -3.74994,3.74911 h -5.18586 l -1.67132,-3.74552 c 2.04301,0 3.12497,0 5.16795,0 0.98152,0 1.79348,-0.71434 1.79348,-1.94987 0,-2.71851 0,-5.437052 0,-8.155602 0,-0.51371 -0.3615,-1.73728 -1.87455,-1.73728 h -10.40429 z" />
      <path
         sodipodi:nodetypes="ccccc"
         inkscape:connector-curvature="0"
         id="path268"
         style="fill:#e6e6e6;fill-rule:evenodd;stroke-width:0.26458332"
         d="m 83.894913,90.203728 h 12.97175 l 1.74548,3.75001 h -12.97177 z" />
      <path
         sodipodi:nodetypes="ccccc"
         inkscape:connector-curvature="0"
         id="path270"
         style="fill:#e6e6e6;fill-rule:evenodd;stroke-width:0.26458332"
         d="m 90.889543,105.73953 13.022607,0.007 1.68256,3.77161 -13.034687,-0.0283 z" />
      <path
         inkscape:connector-curvature="0"
         id="path272"
         style="fill:#00ccff;fill-rule:evenodd;stroke-width:0.26458332"
         d="m 103.32086,90.203728 h 5.2125 l 2.62244,5.90356 h -5.2125 z" />
      <path
         inkscape:connector-curvature="0"
         id="path274"
         style="fill:#e6e6e6;fill-rule:evenodd;stroke-width:0.26458332"
         d="m 94.776323,90.203728 h 5.2125 l 2.622477,5.90356 h -5.212507 z" />
      <path
         inkscape:connector-curvature="0"
         id="path276"
         style="fill:#e6e6e6;fill-rule:evenodd;stroke-width:0.26458332"
         d="m 100.75977,103.61434 h 5.2125 l 2.62245,5.90355 h -5.21251 z" />
      <path
         inkscape:connector-curvature="0"
         id="path278"
         style="fill:#00ccff;fill-rule:evenodd;stroke-width:0.26458332"
         d="m 109.34727,103.61434 h 5.21248 l 2.62247,5.90355 h -5.21251 z" />
      <path
         inkscape:connector-curvature="0"
         id="path280"
         style="fill:#00ccff;fill-opacity:1;fill-rule:evenodd;stroke-width:0.26458332"
         d="m 21.731023,107.07888 h 0.797189 c 1.723629,0 2.872714,-0.18704 3.447283,-0.56121 0.574516,-0.3741 0.859578,-1.03328 0.859578,-1.98197 0,-1.01542 -0.30726,-1.73249 -0.921967,-2.15114 -0.610129,-0.41423 -1.741434,-0.62354 -3.384894,-0.62354 h -0.797189 z m -0.187113,2.53867 v 8.57807 H 18.631138 V 99.088708 h 4.694317 c 1.39401,0 2.41845,0.0757 3.077633,0.22717 0.654659,0.15142 1.229228,0.40528 1.71913,0.752692 0.601293,0.44092 1.068917,1.04219 1.411896,1.7904 0.338455,0.75269 0.507736,1.58114 0.507736,2.48529 0,0.90853 -0.169281,1.74141 -0.507736,2.50746 -0.342979,0.76604 -0.810603,1.36733 -1.411896,1.79932 -0.489902,0.34739 -1.064471,0.59684 -1.71913,0.74384 -0.659183,0.14692 -1.683623,0.22267 -3.077633,0.22267 h -0.610129 z" />
    </g>
  </g>
</svg>
